Coordinates
version=1
nRows=10
nColumns=40
inDegrees=yes

Units are S.I. units (second, meters, Newtons, ...)
If the header above contains a line with 'inDegrees', this indicates whether rotational values are in degrees (yes) or radians (no).

endheader
time	pelvis_tilt	pelvis_list	pelvis_rotation	pelvis_tx	pelvis_ty	pelvis_tz	hip_flexion_r	hip_adduction_r	hip_rotation_r	knee_angle_r	knee_angle_r_beta	ankle_angle_r	subtalar_angle_r	mtp_angle_r	hip_flexion_l	hip_adduction_l	hip_rotation_l	knee_angle_l	knee_angle_l_beta	ankle_angle_l	subtalar_angle_l	mtp_angle_l	lumbar_extension	lumbar_bending	lumbar_rotation	arm_flex_r	arm_add_r	arm_rot_r	elbow_flex_r	pro_sup_r	wrist_flex_r	wrist_dev_r	arm_flex_l	arm_add_l	arm_rot_l	elbow_flex_l	pro_sup_l	wrist_flex_l	wrist_dev_l
      0.25000000	    -16.56291605	     -6.35832825	     20.61545298	     -1.35749393	      0.93058296	      0.24859915	     69.53049645	    -15.45102837	     -8.68145735	     58.12787628	      1.01452283	      7.78697983	      0.00000000	      0.00000000	     -9.15407876	    -11.21020566	     18.84047372	     28.74507946	      0.50169628	    -17.49079457	      0.00000000	      0.00000000	    -12.79841463	     13.86713759	    -17.99482881	    -71.60936941	    -10.81468900	    -26.98925661	     81.74420455	     45.94173156	      0.00000000	      0.00000000	     69.46578866	    -16.62496329	      0.86397808	    127.31754255	     46.34535418	      0.00000000	      0.00000000
      0.25500000	    -16.26036518	     -6.01949683	     20.16446650	     -1.32322553	      0.93364188	      0.24830198	     67.61564628	    -15.12397830	     -9.12724224	     52.03943916	      0.90825955	      4.45022890	      0.00000000	      0.00000000	    -10.03133727	    -10.83515584	     19.19146555	     30.52490397	      0.53276008	    -18.99289297	      0.00000000	      0.00000000	    -12.97445303	     14.18959879	    -17.98724830	    -70.36618037	     -9.92253929	    -28.44570475	     82.22133966	     45.96812523	      0.00000000	      0.00000000	     64.28988024	    -19.03657589	      1.58322983	    129.37414291	     46.54097022	      0.00000000	      0.00000000
      0.26000000	    -16.01283343	     -5.44881046	     19.74160211	     -1.28913321	      0.93647382	      0.24816168	     65.65493767	    -14.90725630	     -9.42233490	     46.14059491	      0.80530530	      2.61884822	      0.00000000	      0.00000000	    -10.65602233	    -10.13581534	     19.63754987	     32.86158749	      0.57354290	    -19.27878312	      0.00000000	      0.00000000	    -13.21946788	     13.71250179	    -17.60418071	    -69.40512996	     -9.75370277	    -28.32399738	     82.56254864	     46.00072572	      0.00000000	      0.00000000	     61.52308818	    -19.37222054	      2.01890211	    129.22658781	     46.56476711	      0.00000000	      0.00000000
      0.26500000	    -15.69746560	     -4.88776235	     19.34754824	     -1.25521674	      0.93916742	      0.24830947	     63.54267676	    -14.64268719	     -9.79847009	     40.43762294	      0.70576966	      0.37315657	      0.00000000	      0.00000000	    -11.03682345	     -9.45310237	     19.89421326	     35.74625495	      0.62388984	    -19.05689791	      0.00000000	      0.00000000	    -13.48391632	     13.21834929	    -17.30875356	    -68.35530670	     -9.60956952	    -28.35810638	     82.88310485	     46.02357818	      0.00000000	      0.00000000	     57.98809470	    -20.13998523	      2.65907204	    129.17624068	     46.60997554	      0.00000000	      0.00000000
      0.27000000	    -15.37441581	     -4.28706468	     18.91338802	     -1.22135171	      0.94159324	      0.24878824	     61.38927557	    -14.32240512	    -10.18527070	     35.05149542	      0.61176400	     -1.91532091	      0.00000000	      0.00000000	    -11.21199649	     -8.73059535	     19.88630250	     39.01394760	      0.68092184	    -18.35427390	      0.00000000	      0.00000000	    -14.00697510	     13.01401897	    -17.89952111	    -66.60081225	     -9.60399264	    -29.14280659	     83.62584767	     46.06341679	      0.00000000	      0.00000000	     53.34110393	    -23.63078258	      3.01859775	    130.37205816	     46.77737258	      0.00000000	      0.00000000
      0.27500000	    -15.04542646	     -3.70614217	     18.41882064	     -1.18760786	      0.94364861	      0.24961081	     59.29778731	    -13.91963407	    -10.58790217	     30.19228963	      0.52695486	     -4.12366695	      0.00000000	      0.00000000	    -11.13352440	     -8.03862487	     19.53488299	     42.66624934	      0.74466653	    -17.94441999	      0.00000000	      0.00000000	    -14.41434364	     12.42383595	    -17.43446194	    -65.23794552	     -9.58772227	    -28.80997126	     84.14978482	     46.11006877	      0.00000000	      0.00000000	     49.64297493	    -24.00048710	      3.65985639	    129.43103733	     46.76587317	      0.00000000	      0.00000000
      0.28000000	    -14.70656733	     -3.11340155	     17.83890721	     -1.15396987	      0.94536542	      0.25070890	     57.30517881	    -13.45164442	    -10.97872464	     25.97340398	      0.45332142	     -6.19212787	      0.00000000	      0.00000000	    -10.89016014	     -7.33777791	     18.94416506	     46.52555753	      0.81202417	    -17.30298000	      0.00000000	      0.00000000	    -15.00468065	     11.97835294	    -17.88431893	    -63.27514833	    -10.24240672	    -28.55474833	     85.03970648	     46.17678781	      0.00000000	      0.00000000	     44.74211645	    -26.49459978	      3.35359211	    129.50973369	     46.84728627	      0.00000000	      0.00000000
      0.28500000	    -14.40312830	     -2.57462928	     17.22696569	     -1.12055486	      0.94664319	      0.25195828	     55.51865763	    -12.96499352	    -11.46821417	     22.55432262	      0.39364719	     -8.01529237	      0.00000000	      0.00000000	    -10.36681149	     -6.69844569	     18.12114819	     50.64254829	      0.88387921	    -16.85676851	      0.00000000	      0.00000000	    -15.45226431	     11.33369556	    -17.31640700	    -61.64183453	    -10.30943294	    -28.13108630	     85.77334698	     46.23316034	      0.00000000	      0.00000000	     40.93901324	    -26.72281316	      4.06596456	    127.89453068	     46.78817358	      0.00000000	      0.00000000
      0.29000000	    -14.14006479	     -2.07907950	     16.57750831	     -1.08735711	      0.94753234	      0.25328931	     53.95039726	    -12.46337575	    -12.02213640	     19.96538925	      0.34846178	     -9.50046289	      0.00000000	      0.00000000	     -9.59740923	     -6.10442241	     17.13429846	     54.94157207	      0.95891133	    -16.34801936	      0.00000000	      0.00000000	    -15.97363277	     10.85027031	    -17.69835827	    -59.36621960	    -11.17327023	    -27.50747315	     86.82573581	     46.28980145	      0.00000000	      0.00000000	     35.88458349	    -28.54130519	      3.22761400	    127.07818251	     46.76459772	      0.00000000	      0.00000000
      0.29500000	    -13.92796394	     -1.67511562	     15.89173259	     -1.05443208	      0.94799591	      0.25469816	     52.64636146	    -11.92567835	    -12.64775834	     18.27530442	      0.31896423	    -10.68884726	      0.00000000	      0.00000000	     -8.57507425	     -5.60794359	     16.05872856	     59.34730583	      1.03580589	    -15.87409191	      0.00000000	      0.00000000	    -16.38203919	     10.28267387	    -17.05881527	    -57.47811395	    -11.36953541	    -27.03362239	     87.76161723	     46.35347821	      0.00000000	      0.00000000	     32.06912293	    -28.46905613	      3.80017229	    124.91006045	     46.65579984	      0.00000000	      0.00000000
